# xmcd
#
# Track frame offsets:
#	150
#	9482
#	20665
#	33872
#	45627
#	60495
#	71032
#	81432
#	93137
#	106072
#	116030
#	133027
#	149932
#	167225
#	182265
#	194070
#	206115
#	219615
#	231922
#	246032
#	259350
#	269857
#	281067
#	294770
#	305285
#	317769
#
# Disc length: 4462 seconds
# Revision: 2
# Processed by: cddbd v1.5.2PL0 Copyright (c) Steve Scherf et al.
# Submitted via: dBpowerAMP V12.0
#
DISCID=91116c1a
DTITLE=Various Artist - Take Me Home, Coutry Roads (Love In The First Degree)
DYEAR=2002
DGENRE=Country
TTITLE0=Charley Pride - Kiss An Angel Good Mornin'
TTITLE1=Don Gibson - Oh Lonesome Me
TTITLE2=Lynn Anderson - Rose Garden
TTITLE3=Merle Haggard - Carolyn
TTITLE4=T. Graham Brown - Darlene
TTITLE5=Jim Reeves - He'll Have To Go
TTITLE6=George Hamilton IV - Abilene
TTITLE7=Sammi Smith - Help Me Make It Through The Night
TTITLE8=Charlie Rich - The Most Beautiful Girl In The World
TTITLE9=Hank Locklin - Please Help Me I'm Falling
TTITLE10=Conway Twitty - Don't Cry Joni
TTITLE11=Billy Troy - Sweet Betsy From Pike
TTITLE12=Kenny Rogers - Lady
TTITLE13=Alabama - Love In The First Degree
TTITLE14=Don Gibson - I Can't Stop Loving You
TTITLE15=Dolly Parton - Jolene
TTITLE16=Ray Price - Heartaches By The Number
TTITLE17=Lynn Anderson - How Can I Unlove You
TTITLE18=Merle Haggard - Always Wanting You
TTITLE19=Hank Snow - I Don't Hurt Anymore
TTITLE20=Patsy Cline - I Love You Honey
TTITLE21=Conway Twitty - It's Only Make Belive
TTITLE22=Lee Greenwood - Don't Underestimate My Love For You
TTITLE23=Frank Suanders - Oh, My Darling Clementine
TTITLE24=Conway Twitty - This Time I've Hurt Her More Than She Loves Me
TTITLE25=Kenny Rogers - You Decorated My Life
EXTD=
EXTT0=
EXTT1=
EXTT2=
EXTT3=
EXTT4=
EXTT5=
EXTT6=
EXTT7=
EXTT8=
EXTT9=
EXTT10=
EXTT11=
EXTT12=
EXTT13=
EXTT14=
EXTT15=
EXTT16=
EXTT17=
EXTT18=
EXTT19=
EXTT20=
EXTT21=
EXTT22=
EXTT23=
EXTT24=
EXTT25=
PLAYORDER=
